<svg xmlns="http://www.w3.org/2000/svg" viewBox="0 0 60 60">
  <defs>
    <linearGradient id="faviconGrad" x1="0%" y1="0%" x2="100%" y2="100%">
      <stop offset="0%" style="stop-color:#0A9FA5;stop-opacity:1" />
      <stop offset="100%" style="stop-color:#064E52;stop-opacity:1" />
    </linearGradient>
  </defs>
  <path d="M30,10 C15,10 5,20 0,30 C5,25 15,22 30,22 C30,22 40,22 50,30 C45,20 40,10 30,10 Z" fill="url(#faviconGrad)" />
  <path d="M30,8 C20,8 10,15 5,25 C10,20 17,18 30,18 C43,18 50,20 55,25 C50,15 40,8 30,8 Z" fill="url(#faviconGrad)" opacity="0.8" />
  <path d="M30,6 C23,6 15,10 10,20 C15,15 22,13 30,13 C38,13 45,15 50,20 C45,10 37,6 30,6 Z" fill="url(#faviconGrad)" opacity="0.6" />
</svg>
